<?xml version="1.0" encoding="UTF-8"?>
<svg version="1.1" xmlns="http://www.w3.org/2000/svg" width="383" height="260">
<path d="M0 0 C0.7736792 0.04664795 1.5473584 0.0932959 2.34448242 0.14135742 C9.4921748 0.64564924 16.31993575 1.9206608 23.25 3.75 C24.30316406 4.01554688 25.35632813 4.28109375 26.44140625 4.5546875 C44.6206004 9.59578919 59.77674483 19.71632901 73.25 32.75 C74.35794922 33.81927734 74.35794922 33.81927734 75.48828125 34.91015625 C89.98757896 49.9245267 103.25 74.32446989 103.25 95.75 C103.79527344 95.84796875 104.34054687 95.9459375 104.90234375 96.046875 C110.78561908 97.21347319 115.86566589 99.13972396 121.25 101.75 C122.260625 102.20375 123.27125 102.6575 124.3125 103.125 C143.50508614 113.74217531 157.08493909 131.74158247 163.10375977 152.63818359 C168.6393771 173.73834934 166.59621522 196.1308431 156.4375 215.5625 C145.43652321 234.26136132 130.81401533 248.22001159 110.125 255.25 C109.44630859 255.48106445 108.76761719 255.71212891 108.06835938 255.95019531 C94.26195232 260.22979186 80.08291969 260.03949255 65.79516602 260.00878906 C63.65982952 260.01150412 61.52449396 260.01506793 59.38916016 260.01940918 C53.62674548 260.02847475 47.86440296 260.02501297 42.10198712 260.01865101 C36.04853459 260.01356002 29.99508792 260.0182911 23.94163513 260.02142334 C13.77805481 260.02505426 3.61450362 260.02028714 -6.54907227 260.01074219 C-18.26883386 259.99986228 -29.98852584 260.00338341 -41.70828575 260.014395 C-51.80214322 260.02349631 -61.89597984 260.02473919 -71.98984009 260.01951766 C-78.00459022 260.01641319 -84.01930773 260.01594643 -90.03405571 260.02259064 C-95.69192864 260.02840486 -101.34971258 260.02429319 -107.00757599 260.01280212 C-109.07342189 260.01017709 -111.13927539 260.01088331 -113.20511818 260.01532745 C-142.62336308 260.07273648 -169.15831553 254.82787136 -191.125 233.8125 C-207.93657195 215.82054108 -217.38857617 192.09319702 -216.72851562 167.43481445 C-215.77714869 147.92954856 -210.51754037 133.86403887 -196.75 119.75 C-196.08484375 119.01394531 -195.4196875 118.27789062 -194.734375 117.51953125 C-190.00200851 112.70588365 -185.75099166 110.93575415 -179.375 109.25 C-174.28749844 108.02796723 -174.28749844 108.02796723 -170.16015625 105.01953125 C-169.37991331 102.90654901 -169.04494685 100.98150574 -168.75 98.75 C-168.25166053 97.03497 -167.72996151 95.32658916 -167.1875 93.625 C-166.95933594 92.83867188 -166.73117188 92.05234375 -166.49609375 91.2421875 C-161.62458683 74.96982406 -150.67501603 62.31360074 -135.83081055 54.20776367 C-130.93884856 51.68749758 -126.10985721 49.9341545 -120.75 48.75 C-119.95335938 48.54761719 -119.15671875 48.34523437 -118.3359375 48.13671875 C-109.96995865 46.18465702 -101.16833054 45.87925988 -92.75 47.75 C-92.48316406 47.17636719 -92.21632813 46.60273437 -91.94140625 46.01171875 C-81.95103314 27.04638751 -60.46737288 12.80975981 -40.75 5.75 C-27.51303545 1.76521722 -13.85213408 -0.86004412 0 0 Z " fill="#FEFEFE" transform="translate(216.75,0.25)"/>
</svg>
