<?xml version="1.0" encoding="UTF-8"?>
<svg version="1.1" xmlns="http://www.w3.org/2000/svg" width="640" height="480">
<path d="M0 0 C0.77283439 -0.00256327 1.54566879 -0.00512655 2.3419224 -0.0077675 C4.92157336 -0.01269376 7.50063402 0.00376809 10.08023071 0.02018738 C11.93330878 0.0210339 13.78638785 0.02055801 15.63946533 0.01885986 C20.66383152 0.01799948 25.68798264 0.03563241 30.71229887 0.05658174 C35.96535367 0.07534117 41.21841345 0.0770984 46.47149658 0.08065796 C56.41614791 0.08998056 66.36070024 0.11459732 76.30530798 0.14470643 C87.62807144 0.17824368 98.95083963 0.19473476 110.27364039 0.20979273 C133.56290376 0.24114664 156.85207927 0.29391139 180.14126587 0.36076355 C180.14126587 1.02076355 180.14126587 1.68076355 180.14126587 2.36076355 C181.34782837 2.67013855 181.34782837 2.67013855 182.57876587 2.98576355 C190.10692437 5.89136859 195.56931978 10.36388081 200.65689087 16.5599823 C202.15776728 18.45839065 202.15776728 18.45839065 204.20376587 20.29826355 C210.80000793 27.32006961 217.83825266 38.39145983 218.26626587 48.23576355 C218.22501587 48.93701355 218.18376587 49.63826355 218.14126587 50.36076355 C218.80126587 50.36076355 219.46126587 50.36076355 220.14126587 50.36076355 C220.80438259 54.8368014 221.20255143 59.12196527 221.17251587 63.64982605 C221.16800415 64.53621765 221.16349243 65.42260925 221.15884399 66.33586121 C221.15014282 67.33818787 221.15014282 67.33818787 221.14126587 68.36076355 C222.74175136 68.35799817 222.74175136 68.35799817 224.37456989 68.35517693 C250.35703174 68.3107445 276.33948864 68.27789619 302.32198048 68.25713921 C314.88700016 68.24683405 327.45199473 68.23278824 340.01699829 68.20988464 C350.97080063 68.18992751 361.92458478 68.17704158 372.8784048 68.17258656 C378.67638858 68.16998313 384.4743203 68.1638797 390.27228737 68.14930344 C395.73460411 68.13568285 401.19684757 68.13154996 406.65917969 68.13454819 C408.65897203 68.13400003 410.65876694 68.13004937 412.65854454 68.1223526 C431.67385752 68.05278412 446.08388979 70.32980807 462.14126587 81.36076355 C462.14126587 82.02076355 462.14126587 82.68076355 462.14126587 83.36076355 C462.88118774 83.61213074 463.62110962 83.86349792 464.38345337 84.1224823 C470.24758622 86.75552779 475.41691737 92.57152298 478.14126587 98.36076355 C478.14126587 99.02076355 478.14126587 99.68076355 478.14126587 100.36076355 C478.80126587 100.36076355 479.46126587 100.36076355 480.14126587 100.36076355 C486.08358034 111.49425723 490.53156328 122.12417854 492.24673462 134.76701355 C492.41713257 136.00773621 492.58753052 137.24845886 492.76309204 138.52677917 C492.95028809 139.92960144 492.95028809 139.92960144 493.14126587 141.36076355 C493.7513298 141.36662979 494.36139374 141.37249603 494.98994446 141.37854004 C501.39915486 141.4429892 507.80788678 141.52753463 514.21670532 141.62321472 C516.60140635 141.65625722 518.9861817 141.6843519 521.3710022 141.7071991 C553.68545504 142.02513489 553.68545504 142.02513489 566.14126587 150.36076355 C566.80513306 150.79131042 567.46900024 151.2218573 568.15298462 151.66545105 C573.89679042 155.66016078 579.07747693 160.66017073 583.14126587 166.36076355 C583.14126587 167.68076355 583.14126587 169.00076355 583.14126587 170.36076355 C583.80126587 170.36076355 584.46126587 170.36076355 585.14126587 170.36076355 C585.41841431 171.21541199 585.69556274 172.07006042 585.98110962 172.9506073 C586.34333618 174.05533386 586.70556274 175.16006042 587.07876587 176.29826355 C587.43841431 177.40041199 587.79806274 178.50256042 588.16860962 179.6381073 C588.87983255 182.2419983 588.87983255 182.2419983 590.14126587 183.36076355 C590.42471722 187.37417704 590.37319866 191.40105113 590.39126587 195.42326355 C590.42220337 197.10452332 590.42220337 197.10452332 590.45376587 198.81974792 C590.4802699 204.46179292 590.31440557 209.18775068 588.01919556 214.373703 C586.98959108 216.70405641 586.20880893 219.06659891 585.42251587 221.4896698 C585.12989868 222.37976746 584.83728149 223.26986511 584.53579712 224.18693542 C583.93828914 226.01468364 583.34193918 227.84281081 582.74673462 229.67131042 C581.0939145 234.69166051 579.28937136 239.53211617 577.14126587 244.36076355 C576.64941778 245.60582827 576.16749365 246.85495415 575.70376587 248.11076355 C575.45626587 248.77849792 575.20876587 249.4462323 574.95376587 250.13420105 C574.36694766 251.74230865 573.78411012 253.35187077 573.20376587 254.96232605 C571.63315064 259.31832922 570.04056472 263.64580449 568.26626587 267.92326355 C565.99568991 273.49649546 564.16378414 279.21073093 562.33511353 284.94108582 C560.9199143 289.30469575 559.23072304 293.26401887 557.14126587 297.36076355 C556.39606745 299.63106481 556.39606745 299.63106481 555.95376587 301.73576355 C555.68564087 302.93201355 555.41751587 304.12826355 555.14126587 305.36076355 C554.48126587 305.36076355 553.82126587 305.36076355 553.14126587 305.36076355 C552.97110962 306.11099792 552.80095337 306.8612323 552.62564087 307.63420105 C551.23083097 313.52504712 549.59977582 319.06417232 547.25454712 324.64201355 C545.89070417 327.97266159 544.663478 331.34699055 543.45376587 334.73576355 C543.03739868 335.89849792 542.62103149 337.0612323 542.19204712 338.25920105 C541.39052607 340.62502898 540.68673435 342.92713494 540.14126587 345.36076355 C539.48126587 345.36076355 538.82126587 345.36076355 538.14126587 345.36076355 C537.95950806 346.21799011 537.77775024 347.07521667 537.59048462 347.9584198 C537.21343384 349.67351746 537.21343384 349.67351746 536.82876587 351.42326355 C536.58513306 352.54861511 536.34150024 353.67396667 536.09048462 354.8334198 C535.09080485 358.54827918 533.7024185 361.84721119 532.14126587 365.36076355 C531.06449814 368.07688927 530.03904836 370.81142095 529.01626587 373.54826355 C528.75200806 374.24629089 528.48775024 374.94431824 528.21548462 375.66349792 C527.0129672 378.8712284 525.92820951 382.0279608 525.14126587 385.36076355 C524.48126587 385.36076355 523.82126587 385.36076355 523.14126587 385.36076355 C523.03814087 386.18576355 522.93501587 387.01076355 522.82876587 387.86076355 C522.19649393 391.07960252 521.22779056 393.91110336 520.02798462 396.95451355 C518.93879038 399.91021245 518.04446321 402.9056847 517.14126587 405.92326355 C515.73282866 410.57863233 514.13036742 414.93049191 512.14126587 419.36076355 C511.45290074 421.35339946 510.77845187 423.35117692 510.14126587 425.36076355 C509.48126587 425.36076355 508.82126587 425.36076355 508.14126587 425.36076355 C508.01751587 426.08263855 507.89376587 426.80451355 507.76626587 427.54826355 C507.15077277 430.31798249 506.25682213 432.75779895 505.14126587 435.36076355 C504.48126587 435.36076355 503.82126587 435.36076355 503.14126587 435.36076355 C502.91439087 436.22701355 502.68751587 437.09326355 502.45376587 437.98576355 C501.3184129 440.90524261 500.54854584 442.27675428 498.57876587 444.54826355 C495.9922416 447.17058336 495.9922416 447.17058336 495.14126587 450.36076355 C493.46939087 452.00920105 493.46939087 452.00920105 491.39126587 453.73576355 C489.06234001 455.68246112 486.87629557 457.63048861 484.74673462 459.79826355 C482.04338113 462.457034 479.23740257 464.71346424 476.20376587 466.98576355 C475.20474243 467.74115417 474.20571899 468.4965448 473.17642212 469.27482605 C470.24683298 471.28821163 467.35280764 472.84868079 464.14126587 474.36076355 C463.41681274 474.72299011 462.69235962 475.08521667 461.94595337 475.4584198 C460.01105754 476.42586772 458.0761617 477.39331563 456.14126587 478.36076355 C455.5989467 478.70529967 455.05662753 479.04983579 454.49787444 479.4048124 C451.19212195 480.74578092 448.01715461 480.63939314 444.50584126 480.62082577 C443.72895873 480.62463144 442.95207619 480.62843711 442.15165177 480.6323581 C439.53283273 480.64271356 436.91422886 480.63876045 434.2953949 480.63491821 C432.40507138 480.63936848 430.51474973 480.64468183 428.62443084 480.65078694 C423.41750708 480.66500287 418.21064291 480.66662955 413.00370252 480.66619003 C407.39276537 480.66783509 401.78185299 480.6808958 396.17092896 480.69238281 C383.89615996 480.71525657 371.62140822 480.72315603 359.3466208 480.72820926 C351.68463206 480.73146363 344.02264835 480.73798455 336.36066246 480.74521065 C315.15395782 480.76477997 293.94725801 480.78126342 272.74054432 480.78408718 C271.72288158 480.78422827 271.72288158 480.78422827 270.68465999 480.78437221 C267.9351971 480.7847507 265.18573421 480.78511469 262.43627132 480.78547519 C260.36682615 480.78574691 258.29738097 480.78602359 256.22793579 480.78630066 C255.54411137 480.78638868 254.86028695 480.7864767 254.15574058 480.78656739 C232.67260371 480.78947243 211.18955684 480.81156371 189.70645142 480.8478241 C165.57479169 480.88855375 141.44320986 480.91222619 117.3115074 480.91254669 C104.53279105 480.91313177 91.75419051 480.92165636 78.97550392 480.95054436 C68.09455373 480.97502876 57.21376158 480.98236099 46.33279131 480.96729683 C40.78027726 480.96011586 35.22807549 480.96103677 29.67559624 480.98370743 C24.59198677 481.00426496 19.50893029 481.00172695 14.42532703 480.98083258 C12.58680191 480.97733153 10.74823715 480.98227368 8.90976403 480.99653702 C-8.56253229 481.12334891 -8.56253229 481.12334891 -15.85873413 475.36076355 C-17.07689819 474.55252136 -17.07689819 474.55252136 -18.31967163 473.72795105 C-34.24830194 461.31012089 -45.0836838 447.6087608 -48.85873413 427.36076355 C-49.18873413 427.03076355 -49.51873413 426.70076355 -49.85873413 426.36076355 C-49.95831166 424.38989724 -49.98613509 422.4154003 -49.98736858 420.44202042 C-49.99059303 419.14728971 -49.99381748 417.852559 -49.99713963 416.51859403 C-49.99566817 415.06292794 -49.99410042 413.60726196 -49.9924469 412.15159607 C-49.994313 410.61987017 -49.99661289 409.08814475 -49.99931222 407.55642009 C-50.00546172 403.32694165 -50.00529295 399.09748288 -50.00411785 394.86800098 C-50.00391463 390.3143667 -50.0094251 385.76073886 -50.01417542 381.20710754 C-50.02250018 372.27735069 -50.02523109 363.34760044 -50.02578779 354.41784003 C-50.02626217 347.16151652 -50.02831299 339.9051952 -50.03148842 332.64887238 C-50.04030062 312.09454717 -50.04490701 291.54022719 -50.04415794 270.98590007 C-50.04411799 269.87661674 -50.04407803 268.76733341 -50.04403687 267.62443542 C-50.04399598 266.51380378 -50.0439551 265.40317214 -50.04391298 264.258885 C-50.04350654 246.25950775 -50.05307422 228.26015143 -50.06717523 210.26078025 C-50.08152601 191.79745034 -50.08844611 173.33413064 -50.08758146 154.87079501 C-50.087249 144.49776499 -50.09001736 134.12475689 -50.10075951 123.75173187 C-50.10984755 114.91900981 -50.11205383 106.08631961 -50.10525008 97.25359491 C-50.10197603 92.74470294 -50.1019599 88.23587215 -50.11060333 83.72698593 C-50.11843055 79.60151712 -50.11707582 75.47615836 -50.1083192 71.35069236 C-50.10677582 69.85602628 -50.1086317 68.36135214 -50.11417928 66.86669555 C-50.12120921 64.83876512 -50.1147686 62.81080127 -50.1076231 60.78287125 C-50.10784047 59.65526422 -50.10805784 58.52765719 -50.10828179 57.36588025 C-49.85326741 54.29493193 -49.12530987 52.1485297 -47.85873413 49.36076355 C-47.40135615 47.61585334 -46.96439165 45.8654859 -46.54623413 44.11076355 C-44.24407962 35.56644879 -39.93112885 29.17906494 -34.40951538 22.3568573 C-32.74579051 20.33111289 -32.74579051 20.33111289 -31.42123413 17.67326355 C-28.95293604 14.02018237 -25.42258628 11.88542446 -21.85873413 9.36076355 C-19.8725378 7.83120675 -17.8910992 6.29584621 -15.91342163 4.7552948 C-10.63301007 1.17144133 -6.33649116 -0.07754893 0 0 Z M102.14126587 207.36076355 C100.81095337 208.44357605 100.81095337 208.44357605 99.45376587 209.54826355 C94.07437586 216.09076491 90.83895617 224.38009642 88.14126587 232.36076355 C87.86282837 233.13549011 87.58439087 233.91021667 87.29751587 234.7084198 C85.94352557 238.56353106 85.14126587 241.1994731 85.14126587 245.36076355 C84.48126587 245.36076355 83.82126587 245.36076355 83.14126587 245.36076355 C82.89892212 246.11099792 82.65657837 246.8612323 82.40689087 247.63420105 C80.79529494 252.55576709 79.16200991 257.44006385 77.20376587 262.23576355 C75.51796058 266.37303869 73.92444151 270.53976107 72.39126587 274.73576355 C71.96329712 275.89849792 71.53532837 277.0612323 71.09439087 278.25920105 C69.94543424 281.45723408 69.94543424 281.45723408 70.14126587 285.36076355 C69.48126587 285.36076355 68.82126587 285.36076355 68.14126587 285.36076355 C67.88732056 286.21799011 67.63337524 287.07521667 67.37173462 287.9584198 C67.02755493 289.10181824 66.68337524 290.24521667 66.32876587 291.42326355 C65.99232056 292.54861511 65.65587524 293.67396667 65.30923462 294.8334198 C64.11123695 298.45145289 62.66607817 301.86894337 61.14126587 305.36076355 C60.04495223 308.07733725 58.99500841 310.81018131 57.95376587 313.54826355 C57.54481079 314.59530457 57.54481079 314.59530457 57.12759399 315.66349792 C55.80564034 319.14563651 55.14126587 321.58667239 55.14126587 325.36076355 C54.48126587 325.36076355 53.82126587 325.36076355 53.14126587 325.36076355 C52.88732056 326.21799011 52.63337524 327.07521667 52.37173462 327.9584198 C50.57369039 333.93169781 48.64829283 339.64474208 46.14126587 345.36076355 C45.24912986 347.7084899 44.37594424 350.06345873 43.51626587 352.42326355 C43.09087524 353.58986511 42.66548462 354.75646667 42.22720337 355.9584198 C41.22269725 359.10563142 40.58888 362.09318037 40.14126587 365.36076355 C39.48126587 365.36076355 38.82126587 365.36076355 38.14126587 365.36076355 C37.89892212 366.18318542 37.65657837 367.0056073 37.40689087 367.85295105 C35.5866741 373.91567305 33.63827482 379.82343709 31.22329712 385.67326355 C29.87469982 389.02284817 28.62121278 392.40381921 27.39126587 395.79826355 C26.96329712 396.97259949 26.53532837 398.14693542 26.09439087 399.3568573 C24.9900478 402.31209976 24.9900478 402.31209976 25.14126587 405.36076355 C24.48126587 405.36076355 23.82126587 405.36076355 23.14126587 405.36076355 C22.88732056 406.20638855 22.63337524 407.05201355 22.37173462 407.92326355 C19.22104471 418.30755988 19.22104471 418.30755988 17.45376587 422.67326355 C16.02266241 426.6939828 15.51916817 430.12825779 15.14126587 434.36076355 C18.63238837 437.63065047 21.2221828 437.73641342 25.92052841 437.73828697 C26.60484999 437.74264729 27.28917156 437.74700762 27.99423015 437.75150007 C30.29830389 437.76249017 32.60178342 437.75201719 34.90585327 437.74171448 C36.57002643 437.74516959 38.23419729 437.74993316 39.89836335 437.75589621 C44.48017881 437.76845655 49.06180757 437.76221297 53.64362383 437.75293756 C58.58173438 437.74616774 63.51981216 437.75661815 68.45791626 437.76487732 C78.13626269 437.77824017 87.81453946 437.77532522 97.49288866 437.7666394 C105.35886408 437.75987172 113.22481993 437.75894217 121.09079742 437.76221085 C122.76838872 437.76290039 122.76838872 437.76290039 124.47987075 437.76360387 C126.75172677 437.76456303 129.02358279 437.76553567 131.2954388 437.76652165 C152.61664629 437.77508342 173.93781515 437.76522989 195.25901631 437.74912055 C213.55604856 437.735724 231.85302371 437.73803848 250.15005493 437.75187683 C271.38735465 437.7679314 292.62462043 437.77425163 313.86192536 437.76504004 C316.12677399 437.76408438 318.39162262 437.76314127 320.65647125 437.76221085 C321.77086615 437.76174802 322.88526105 437.76128519 324.0334255 437.76080834 C331.88846982 437.75821754 339.74349264 437.76259156 347.59853363 437.76964951 C357.17368426 437.77806365 366.74876111 437.77578644 376.32390329 437.75980727 C381.20990638 437.75192231 386.09578646 437.74883675 390.98178864 437.75875473 C395.45522277 437.76769784 399.92841995 437.76277501 404.40183261 437.74682207 C406.01960811 437.74347256 407.63740366 437.74517218 409.25516626 437.75244944 C420.53250318 437.82201022 420.53250318 437.82201022 431.14126587 434.36076355 C432.33751587 433.86576355 433.53376587 433.37076355 434.76626587 432.86076355 C435.88001587 432.36576355 436.99376587 431.87076355 438.14126587 431.36076355 C439.25501587 430.86576355 440.36876587 430.37076355 441.51626587 429.86076355 C444.43952582 428.57730845 444.43952582 428.57730845 445.14126587 425.36076355 C445.71618774 425.2318573 446.29110962 425.10295105 446.88345337 424.97013855 C450.21478242 424.07102552 451.85910106 422.03948506 454.26626587 419.61076355 C455.13509399 418.7496698 456.00392212 417.88857605 456.89907837 417.00138855 C459.06101598 414.45527388 460.00620489 412.45245345 461.14126587 409.36076355 C461.80126587 409.03076355 462.46126587 408.70076355 463.14126587 408.36076355 C463.91317487 406.35383216 463.91317487 406.35383216 464.51626587 403.92326355 C465.75109335 399.56757856 467.24841553 395.45030746 468.96939087 391.26701355 C470.44299136 387.61248434 471.82576827 383.92720959 473.20376587 380.23576355 C473.44909058 379.57882507 473.69441528 378.9218866 473.94717407 378.24504089 C474.43402883 376.94013323 474.92060032 375.63511985 475.40689087 374.33000183 C477.1185187 369.7402445 478.8409555 365.15456334 480.57095337 360.57170105 C481.84299099 357.19988841 483.10626946 353.8248817 484.36392212 350.44767761 C484.87555418 349.07411264 485.38853928 347.70105077 485.90298462 346.32853699 C486.61427939 344.42516488 487.31547551 342.51802822 488.01626587 340.61076355 C488.63114868 338.94787292 488.63114868 338.94787292 489.25845337 337.25138855 C490.33599066 334.22690708 490.33599066 334.22690708 490.14126587 330.36076355 C490.80126587 330.36076355 491.46126587 330.36076355 492.14126587 330.36076355 C492.39521118 329.58732605 492.64915649 328.81388855 492.91079712 328.01701355 C493.42706665 326.4546698 493.42706665 326.4546698 493.95376587 324.86076355 C494.29021118 323.83982605 494.62665649 322.81888855 494.97329712 321.76701355 C496.76758031 316.53418765 498.74444683 311.37634882 500.74673462 306.22013855 C501.00776978 305.54209167 501.26880493 304.8640448 501.53775024 304.16545105 C502.07184894 302.7781132 502.61104214 301.39272745 503.15493774 300.00920105 C504.48173064 296.53759256 505.14126587 294.12912039 505.14126587 290.36076355 C505.80126587 290.36076355 506.46126587 290.36076355 507.14126587 290.36076355 C507.39521118 289.50353699 507.64915649 288.64631042 507.91079712 287.7631073 C509.70884134 281.78982929 511.63423891 276.07678502 514.14126587 270.36076355 C515.03340188 268.0130372 515.9065875 265.65806837 516.76626587 263.29826355 C517.19165649 262.13166199 517.61704712 260.96506042 518.05532837 259.7631073 C519.05983449 256.61589568 519.69365174 253.62834673 520.14126587 250.36076355 C520.80126587 250.36076355 521.46126587 250.36076355 522.14126587 250.36076355 C522.38360962 249.53834167 522.62595337 248.7159198 522.87564087 247.86857605 C524.69585764 241.80585405 526.64425692 235.89809001 529.05923462 230.04826355 C530.40783191 226.69867893 531.66131896 223.31770789 532.89126587 219.92326355 C533.31923462 218.74892761 533.74720337 217.57459167 534.18814087 216.3646698 C535.29248394 213.40942734 535.29248394 213.40942734 535.14126587 210.36076355 C535.80126587 210.36076355 536.46126587 210.36076355 537.14126587 210.36076355 C539.73401725 202.0204185 539.73401725 202.0204185 540.14126587 193.36076355 C536.06112915 191.42245162 532.78871263 191.11028731 528.29139423 191.10908127 C527.61158313 191.10617439 526.93177203 191.10326751 526.23136058 191.10027254 C523.94874174 191.09296184 521.66639079 191.09992084 519.3837738 191.10679626 C517.73253911 191.10449224 516.08130544 191.1013161 514.43007392 191.09734178 C509.8886179 191.08897676 505.34724571 191.09312684 500.80578935 191.09931421 C495.9092472 191.1038309 491.01271968 191.09685872 486.11618042 191.09135437 C476.52086592 191.08244935 466.92558267 191.0843876 457.33026693 191.09017965 C449.53060205 191.09469309 441.73094594 191.09531042 433.93128014 191.09313202 C432.82192496 191.09282555 431.71256978 191.09251909 430.56959778 191.09220333 C428.31602576 191.09156389 426.06245374 191.09091546 423.80888172 191.09025815 C402.66263721 191.08455127 381.51641002 191.09111767 360.37016835 191.10185888 C342.22899881 191.11078855 324.08785487 191.10924786 305.94668579 191.10002136 C284.88479096 191.08931442 263.82291134 191.08510713 242.76101416 191.09124589 C240.51411959 191.09188299 238.26722501 191.09251173 236.02033043 191.09313202 C234.91480427 191.09344057 233.80927811 191.09374912 232.67025116 191.09406702 C224.88326546 191.09579315 217.0962894 191.0928805 209.30930519 191.08817291 C199.81440031 191.08255911 190.31952848 191.08409081 180.82462738 191.0947344 C175.98092293 191.09998531 171.13727358 191.10205781 166.29356956 191.0954361 C161.85650994 191.08946217 157.4195563 191.0927756 152.98250624 191.1033912 C151.38020141 191.10561918 149.77788758 191.1045025 148.17558859 191.09963962 C129.5372578 191.04742799 116.51758511 194.98199604 102.14126587 207.36076355 Z " fill="#000000" transform="translate(49.858734130859375,-0.3607635498046875)"/>
</svg>
