<?xml version="1.0" encoding="UTF-8"?>
<svg version="1.1" xmlns="http://www.w3.org/2000/svg" width="19" height="19">
<path d="M0 0 C0 1.32 0 2.64 0 4 C-1.11375 3.95875 -2.2275 3.9175 -3.375 3.875 C-7.04366025 3.58878141 -7.04366025 3.58878141 -9 6 C-9.33333333 8.5 -9.33333333 8.5 -9 11 C-7.17296773 13.2491908 -7.17296773 13.2491908 -4.5 13.25 C-1.82703227 13.2491908 -1.82703227 13.2491908 0 11 C-1.65 10.67 -3.3 10.34 -5 10 C-5 9.01 -5 8.02 -5 7 C-1.7 7 1.6 7 5 7 C4.69168574 10.39145689 4.33999434 12.53408183 2.3125 15.3125 C-0.60464402 17.44122671 -2.38840253 17.92776805 -6 18 C-9.56142534 16.76719892 -11.43265682 15.9126825 -13.4375 12.6875 C-14.13205095 9.36908992 -13.96874011 7.25219893 -13 4 C-9.0007212 -0.93244385 -6.04050627 -1.20810125 0 0 Z " fill="#EAC210" transform="translate(14,1)"/>
<path d="M0 0 C3.3 0 6.6 0 10 0 C9.69168574 3.39145689 9.33999434 5.53408183 7.3125 8.3125 C4.4525643 10.39948011 2.52467729 10.85313845 -1 11 C-3.375 10.0625 -3.375 10.0625 -5 9 C-3.8125 7.5 -3.8125 7.5 -2 6 C-0.33382885 5.95936168 1.33388095 5.957279 3 6 C3.66 5.34 4.32 4.68 5 4 C3.35 3.67 1.7 3.34 0 3 C0 2.01 0 1.02 0 0 Z " fill="#2784F1" transform="translate(9,8)"/>
<path d="M0 0 C0 1.32 0 2.64 0 4 C-1.27875 4.061875 -2.5575 4.12375 -3.875 4.1875 C-4.59429688 4.22230469 -5.31359375 4.25710937 -6.0546875 4.29296875 C-6.69664063 4.19628906 -7.33859375 4.09960938 -8 4 C-8.66 3.01 -9.32 2.02 -10 1 C-6.42181037 -1.33958553 -4.07775191 -0.9267618 0 0 Z " fill="#FD402D" transform="translate(14,1)"/>
<path d="M0 0 C2.05078125 0.03255208 4.1015625 0.06510417 6.15234375 0.09765625 C6.48234375 1.08765625 6.81234375 2.07765625 7.15234375 3.09765625 C4.3931019 4.90177592 3.26262272 5.11038075 -0.09765625 4.72265625 C-1.00515625 4.51640625 -1.91265625 4.31015625 -2.84765625 4.09765625 C-2.84765625 0.15051037 -2.84765625 0.15051037 0 0 Z " fill="#10B465" transform="translate(7.84765625,13.90234375)"/>
</svg>
