<?xml version="1.0" encoding="UTF-8"?>
<svg version="1.1" xmlns="http://www.w3.org/2000/svg" width="359" height="332">
<path d="M0 0 C19.68642872 16.02558578 33.22410593 40.13225398 36.66210938 65.35302734 C36.90802988 69.83656105 36.89723118 74.30154546 36.84960938 78.79052734 C36.84864258 80.51625977 36.84864258 80.51625977 36.84765625 82.27685547 C36.80005121 91.61273268 36.80005121 91.61273268 36.20036602 94.83107281 C35.26117926 100.29932794 35.26117926 100.29932794 36.72240353 105.50570965 C38.41696021 107.58187159 40.21413883 109.39178217 42.17041016 111.22363281 C42.87424332 111.92921829 43.57807648 112.63480377 44.30323792 113.36177063 C46.62732012 115.67752104 48.9909248 117.94789457 51.35742188 120.22021484 C52.98616132 121.82655071 54.61225499 123.43557329 56.23580933 125.04714966 C60.5119194 129.27751945 64.82279775 133.4706481 69.14202881 137.65692139 C73.52432714 141.91666058 77.87307177 146.21034636 82.22460938 150.50146484 C89.25944488 157.43089932 96.314403 164.33902795 103.39622498 171.22044373 C106.10750741 173.85620016 108.80607263 176.49818332 111.46896362 179.18313599 C113.60731266 181.39128925 113.60731266 181.39128925 116.03710938 183.16552734 C119.10739411 185.72409795 121.55172462 188.58695776 124.11132812 191.64599609 C125.56890712 193.45697323 125.56890712 193.45697323 127.66210938 194.35302734 C127.66210938 195.01302734 127.66210938 195.67302734 127.66210938 196.35302734 C128.32210938 196.35302734 128.98210937 196.35302734 129.66210938 196.35302734 C131.0010657 198.01518002 132.3334108 199.68266342 133.66210938 201.35302734 C134.89960937 202.34302734 134.89960937 202.34302734 136.16210938 203.35302734 C138.80013088 205.46344455 140.58853 207.69625377 142.66210938 210.35302734 C145.5330641 213.38347955 148.55894878 216.13960398 151.72460938 218.85302734 C154.75926108 221.47282965 157.18609391 224.19397313 159.66210938 227.35302734 C161.31213765 228.7068967 162.97954808 230.03980877 164.66210938 231.35302734 C167.47460938 233.97802734 167.47460938 233.97802734 169.66210938 236.35302734 C169.66210938 237.01302734 169.66210938 237.67302734 169.66210938 238.35302734 C170.49742187 238.69333984 170.49742187 238.69333984 171.34960938 239.04052734 C176.30129323 241.8509425 179.7524564 246.55767017 183.33007812 250.89990234 C184.62007847 252.48081917 184.62007847 252.48081917 186.66210938 253.35302734 C186.66210938 254.01302734 186.66210938 254.67302734 186.66210938 255.35302734 C187.30148437 255.66240234 187.94085938 255.97177734 188.59960938 256.29052734 C190.66210938 257.35302734 190.66210938 257.35302734 191.66210938 258.35302734 C194.22156243 269.8004181 194.37263412 282.1797943 188.21289062 292.48583984 C182.43053154 301.02853396 174.91187225 307.77973801 164.63555908 310.00982666 C156.31188632 311.24726055 148.00191393 311.41982877 139.59960938 311.35302734 C138.38045837 311.34709564 137.16130737 311.34116394 135.9052124 311.33505249 C132.36863961 311.2829891 128.84696325 311.15229883 125.31445312 310.97802734 C123.71084679 310.92537468 123.71084679 310.92537468 122.07484436 310.87165833 C116.45254164 310.44734796 113.37987103 309.7216622 109.59790039 305.38818359 C108.61554223 304.04587601 107.63647963 302.70114448 106.66210938 301.35302734 C105.02243728 299.98663393 103.35883324 298.64789556 101.66210938 297.35302734 C99.95102249 295.73199766 98.28957632 294.05799271 96.66210938 292.35302734 C96.07727783 291.84352539 95.49244629 291.33402344 94.88989258 290.80908203 C90.6393442 286.74164618 89.18211757 283.8092651 88.97851562 277.88427734 C89.0246199 275.53954546 89.10749642 273.19528645 89.22460938 270.85302734 C89.25619141 269.64904297 89.28777344 268.44505859 89.3203125 267.20458984 C89.40234255 264.25150819 89.51706852 261.30357281 89.66210938 258.35302734 C88.53397827 258.36088257 88.53397827 258.36088257 87.38305664 258.36889648 C83.99691595 258.38959961 80.61078853 258.40266611 77.22460938 258.41552734 C76.04060547 258.42390625 74.85660156 258.43228516 73.63671875 258.44091797 C72.51201172 258.44414062 71.38730469 258.44736328 70.22851562 258.45068359 C68.66532593 258.45853882 68.66532593 258.45853882 67.07055664 258.46655273 C64.66210938 258.35302734 64.66210938 258.35302734 63.66210938 257.35302734 C63.57484715 255.57231488 63.55511896 253.78819594 63.56445312 252.00537109 C63.56695068 251.0333374 63.56944824 250.06130371 63.57202148 249.05981445 C63.58112549 247.81594971 63.59022949 246.57208496 63.59960938 245.29052734 C63.62023437 241.35115234 63.64085937 237.41177734 63.66210938 233.35302734 C55.41210938 233.35302734 47.16210938 233.35302734 38.66210938 233.35302734 C38.66210938 224.77302734 38.66210938 216.19302734 38.66210938 207.35302734 C33.18810547 207.49224609 33.18810547 207.49224609 27.60351562 207.63427734 C24.04896603 207.69675852 20.49447879 207.74528162 16.93969727 207.79248047 C14.47880444 207.83258702 12.01810076 207.88708818 9.55786133 207.95654297 C6.01010394 208.05415474 2.46487585 208.09908416 -1.08398438 208.13427734 C-2.17496933 208.17556763 -3.26595428 208.21685791 -4.38999939 208.25939941 C-10.41427846 208.26289822 -13.79709038 207.56357638 -18.40063477 203.53466797 C-19.74885715 202.17538835 -21.06439089 200.78255282 -22.33789062 199.35302734 C-22.92593979 198.69395386 -23.51398895 198.03488037 -24.11985779 197.35583496 C-25.09854928 196.22895983 -26.06330081 195.08982515 -27.01367188 193.93896484 C-30.56753814 189.68271203 -34.68657897 186.15653932 -38.98242188 182.68505859 C-39.42972656 182.24548828 -39.87703125 181.80591797 -40.33789062 181.35302734 C-40.33789062 180.69302734 -40.33789062 180.03302734 -40.33789062 179.35302734 C-41.09328125 179.49740234 -41.84867187 179.64177734 -42.62695312 179.79052734 C-70.93353193 184.56353361 -99.59773228 180.37614537 -123.61914062 164.08349609 C-146.66407566 147.6066066 -161.69210806 123.89034571 -166.95629883 96.12060547 C-170.61269868 69.6017643 -165.35414466 42.09650736 -149.33789062 20.35302734 C-131.38224638 -3.18737424 -109.00320999 -17.07324378 -79.89648438 -22.26025391 C-50.77717485 -25.42470137 -23.19449208 -18.06418494 0 0 Z M-111.74414062 37.30224609 C-117.21947506 44.34771319 -117.35610325 51.6351878 -116.33789062 60.35302734 C-113.76629851 68.89071318 -108.65735649 73.76134782 -101.21289062 78.22802734 C-94.51949916 80.74558675 -86.16006232 80.4222144 -79.52539062 77.91552734 C-72.93324578 74.46770205 -67.8897015 68.70377201 -65.33789062 61.72802734 C-63.01759744 52.9321447 -64.93790094 45.31550926 -69.40039062 37.48974609 C-73.32672714 32.2137314 -79.93567825 28.61290046 -86.33789062 27.35302734 C-96.44573052 26.46637472 -104.95747212 29.69505824 -111.74414062 37.30224609 Z M37.66210938 131.35302734 C35.66892165 140.24795131 34.22139737 150.77145221 38.61063671 159.16742039 C44.94392593 169.01388542 54.19875246 177.0319397 62.6354537 185.02847719 C66.15092832 188.38732612 69.59221939 191.82064293 73.04275513 195.24594116 C78.83078301 200.97179658 84.66286519 206.64903295 90.53076172 212.29296875 C98.81623836 220.26221938 107.02088548 228.31089397 115.20960212 236.37938619 C126.175034 247.17747087 137.16703217 257.94918762 148.24211502 268.63487625 C149.43941433 269.79103721 150.63512 270.94885103 151.82914734 272.10839081 C153.45276533 273.68403948 155.0823933 275.25318049 156.71408081 276.82046509 C158.08294339 278.14143912 158.08294339 278.14143912 159.47945976 279.4890995 C161.4372206 281.56949451 161.4372206 281.56949451 163.66210938 281.35302734 C163.99210937 282.34302734 164.32210937 283.33302734 164.66210938 284.35302734 C165.32210937 284.35302734 165.98210937 284.35302734 166.66210938 284.35302734 C168.72311131 275.42209644 170.1431213 264.93641746 165.69056797 256.51562023 C159.17110064 246.46536929 149.71258293 238.26182639 141.08297777 230.07179022 C137.48343906 226.62882632 133.9580398 223.11144892 130.4234314 219.6020813 C124.49418997 213.73502241 118.52083099 207.91653458 112.51171875 202.13134766 C104.02674941 193.96255776 95.62255212 185.71436776 87.23434377 177.44639564 C76.00207459 166.38148709 64.74324006 155.34294966 53.40130806 144.39038277 C52.17498127 143.20519592 50.95024974 142.01835599 49.72719765 140.82979012 C48.06417285 139.21473137 46.39513032 137.60617638 44.72402954 135.9994812 C43.78933146 135.09670881 42.85463337 134.19393642 41.8916111 133.2638073 C39.89839192 131.13611138 39.89839192 131.13611138 37.66210938 131.35302734 Z " fill="#000000" transform="translate(167.337890625,22.64697265625)"/>
</svg>
