<?xml version="1.0" encoding="UTF-8"?>
<svg version="1.1" xmlns="http://www.w3.org/2000/svg" width="384" height="420">
<path d="M0 0 C9.01882574 0.1896885 17.27106515 7.7308024 24.48168945 12.61157227 C39.48186436 22.71233569 54.78988301 29.75934989 72.25 34.4375 C72.94641602 34.62441406 73.64283203 34.81132812 74.36035156 35.00390625 C104.5242007 42.84679119 138.518502 35.63019304 165.25 20.6875 C170.61258699 17.5144814 175.84004456 14.14758436 181.0625 10.75 C183.79024026 8.97695372 186.5191341 7.2057284 189.25 5.4375 C190.63445312 4.5403125 190.63445312 4.5403125 192.046875 3.625 C192.79453125 3.17125 193.5421875 2.7175 194.3125 2.25 C194.90160156 1.88519531 195.49070312 1.52039063 196.09765625 1.14453125 C208.25664535 -2.84961943 224.77116408 3.34970173 235.71875 8.61328125 C240.18043503 10.91815615 244.29191917 13.34748921 248.25 16.4375 C248.92160156 16.95828125 249.59320313 17.4790625 250.28515625 18.015625 C280.36961543 42.82515974 288.93552873 87.31875512 292.85742188 123.85888672 C293.56381951 131.32562302 293.62199833 138.80824721 293.62060547 146.30322266 C293.62499728 148.93587152 293.66155075 151.56686158 293.69921875 154.19921875 C293.83428744 174.48284247 289.79488059 192.18794112 275.50952148 207.32568359 C261.84831478 221.14258019 244.17962212 227.3089913 225.04217052 227.56613445 C223.15419805 227.57284539 221.26620156 227.57425206 219.3782196 227.57121277 C218.32937476 227.57347833 217.28052991 227.57574388 216.19990188 227.57807809 C212.70967252 227.5843732 209.21948243 227.58359163 205.72924805 227.58276367 C203.21687775 227.58575794 200.70450791 227.58916109 198.19213867 227.59294128 C192.09039149 227.60084312 185.98865853 227.60399472 179.88690671 227.60455366 C174.92348728 227.60503022 169.96007102 227.60709194 164.9966526 227.61025429 C150.8998413 227.61905198 136.80303758 227.62367498 122.70622351 227.62292381 C121.94763508 227.62288386 121.18904666 227.6228439 120.4074707 227.62280273 C119.64794776 227.62276185 118.88842481 227.62272097 118.10588602 227.62267885 C105.79979133 227.62227249 93.49372725 227.63184188 81.1876414 227.6459411 C68.52773095 227.66033037 55.8678354 227.6672099 43.20791656 227.66634732 C36.10999463 227.66601627 29.01210482 227.6687233 21.91419029 227.67952538 C15.23698202 227.68962277 8.55985259 227.68926906 1.88263702 227.68200874 C-0.56138648 227.68096593 -3.00541425 227.68330768 -5.44943047 227.6893692 C-30.81345671 227.7481786 -53.40738358 225.82639728 -72.75 207.4375 C-91.13428316 188.03363787 -91.27372547 163.97876081 -90.84326172 138.78417969 C-89.65681511 96.20876055 -80.15067882 49.47421521 -48.46484375 18.875 C-34.72653368 6.54017197 -17.94341278 2.09339816 0 0 Z " fill="#000000" transform="translate(90.75,192.5625)"/>
<path d="M0 0 C0.92941406 0.70125 1.85882813 1.4025 2.81640625 2.125 C12.46931013 9.64325615 19.46810177 18.74107748 26 29 C26.62648438 29.87785156 26.62648438 29.87785156 27.265625 30.7734375 C40.62140043 50.13085886 43.22373903 77.49409866 39.71484375 100.17578125 C39.47894531 101.43777344 39.24304688 102.69976562 39 104 C38.88027832 104.65274902 38.76055664 105.30549805 38.63720703 105.97802734 C33.29606849 133.88122374 15.04080407 156.17195313 -7.8125 172.1875 C-29.66401105 186.38815899 -57.35834181 191.55137562 -82.9375 186.8125 C-111.38846514 180.10709632 -136.5650948 164.28204839 -152.75 139.5 C-167.86298466 114.60188012 -172.53029235 85.13328633 -166.03515625 56.5546875 C-161.96627495 42.58230267 -155.29853139 26.56091436 -145 16 C-144.34 16 -143.68 16 -143 16 C-142.75507813 15.43023437 -142.51015625 14.86046875 -142.2578125 14.2734375 C-138.41286901 7.32388125 -130.73634505 1.1193477 -124 -3 C-123.34 -3 -122.68 -3 -122 -3 C-122 -3.66 -122 -4.32 -122 -5 C-82.67057498 -27.13706515 -36.83389931 -28.74840922 0 0 Z " fill="#000000" transform="translate(256,22)"/>
</svg>
